<svg width="260" height="264" viewBox="0 0 260 264" fill="none" xmlns="http://www.w3.org/2000/svg">
<g filter="url(#filter0_d_159_186)">
<path fill-rule="evenodd" clip-rule="evenodd" d="M121.537 44.8717C168.323 44.8717 206.251 82.7991 206.251 129.585C206.251 176.371 168.323 214.298 121.537 214.298C74.7512 214.298 36.824 176.371 36.8239 129.585C36.8239 82.7991 74.7512 44.8717 121.537 44.8717ZM121.848 63.4901C84.83 63.4901 54.8217 93.082 54.8217 129.585C54.8217 166.088 84.8306 195.68 121.848 195.68C158.865 195.68 188.874 166.088 188.874 129.585C188.874 93.082 158.865 63.4901 121.848 63.4901Z" fill="url(#paint0_linear_159_186)"/>
<path d="M131.745 171.922C133.296 171.55 134.854 172.506 135.223 174.055L137.431 183.296C137.802 184.844 136.845 186.403 135.294 186.771C133.746 187.143 132.188 186.186 131.82 184.634L129.611 175.397C129.24 173.848 130.197 172.29 131.745 171.922Z" fill="url(#paint1_linear_159_186)"/>
<path d="M105.272 173.241C105.728 171.711 107.334 170.842 108.86 171.295C110.389 171.75 111.258 173.357 110.802 174.883L108.097 183.988C107.79 185.013 106.968 185.743 105.999 185.972C105.521 186.085 105.01 186.083 104.509 185.931C102.98 185.478 102.111 183.872 102.566 182.343L105.272 173.241Z" fill="url(#paint2_linear_159_186)"/>
<path d="M163.862 141.512C164.317 139.983 165.924 139.114 167.45 139.566L176.555 142.275C178.081 142.73 178.953 144.337 178.498 145.862C178.194 146.887 177.369 147.618 176.4 147.848C175.925 147.961 175.414 147.957 174.909 147.805L165.804 145.1C164.278 144.643 163.409 143.037 163.862 141.512Z" fill="url(#paint3_linear_159_186)"/>
<path d="M64.4373 111.942C64.8934 110.413 66.4996 109.544 68.0257 110L77.1313 112.706C78.6599 113.161 79.5293 114.767 79.0732 116.293C78.7697 117.318 77.9455 118.048 76.9761 118.277C76.5008 118.394 75.99 118.387 75.4854 118.239L66.3798 115.53C64.8543 115.075 63.9851 113.468 64.4373 111.942Z" fill="url(#paint4_linear_159_186)"/>
<path d="M74.9716 137.045C76.5231 136.673 78.0815 137.63 78.4501 139.181C78.8212 140.729 77.8649 142.287 76.3133 142.656L67.0749 144.864C65.5271 145.236 63.9692 144.279 63.6006 142.728C63.2288 141.179 64.1853 139.621 65.7338 139.252L74.9716 137.045Z" fill="url(#paint5_linear_159_186)"/>
<path d="M175.86 112.941C177.412 112.569 178.966 113.526 179.338 115.075C179.707 116.626 178.753 118.184 177.202 118.552L167.963 120.76C166.415 121.132 164.857 120.175 164.485 118.624C164.117 117.075 165.074 115.518 166.622 115.149L175.86 112.941Z" fill="url(#paint6_linear_159_186)"/>
<path d="M160.594 87.8838C161.751 86.7884 163.578 86.8368 164.673 87.9936C165.769 89.151 165.717 90.9775 164.56 92.0729L157.662 98.6023C157.281 98.9641 156.828 99.2006 156.353 99.3135C155.383 99.5463 154.32 99.2682 153.583 98.4925C152.49 97.3356 152.539 95.5092 153.696 94.4132L160.594 87.8838Z" fill="url(#paint7_linear_159_186)"/>
<path d="M80.5608 85.6992C81.7176 84.6032 83.5441 84.6547 84.6395 85.8121L91.1695 92.7065C92.2649 93.8633 92.2159 95.6904 91.0591 96.7858C90.6774 97.1476 90.225 97.3834 89.7471 97.497C88.7771 97.7297 87.714 97.4517 86.9804 96.6759L80.4472 89.7778C79.3519 88.621 79.4034 86.7946 80.5608 85.6992Z" fill="url(#paint8_linear_159_186)"/>
<path d="M134.841 73.8164C135.294 72.2878 136.901 71.4184 138.429 71.8745C139.955 72.3269 140.825 73.9331 140.372 75.4623L137.663 84.5647C137.359 85.5894 136.535 86.3192 135.566 86.5488C135.09 86.6655 134.58 86.6587 134.075 86.5072C132.549 86.0542 131.68 84.4481 132.133 82.9189L134.841 73.8164Z" fill="url(#paint9_linear_159_186)"/>
<path d="M107.641 71.0336C109.193 70.6618 110.747 71.6188 111.119 73.1703L113.327 82.4081C113.696 83.9565 112.738 85.5149 111.19 85.8835C109.642 86.2547 108.084 85.2983 107.713 83.7499L105.504 74.509C105.136 72.9606 106.093 71.4022 107.641 71.0336Z" fill="url(#paint10_linear_159_186)"/>
<path fill-rule="evenodd" clip-rule="evenodd" d="M105.401 61.6536C142.482 52.7937 179.858 75.7533 188.718 112.835C197.578 149.916 174.615 187.291 137.537 196.152C100.456 205.011 63.0798 182.052 54.2199 144.971C45.36 107.889 68.3192 70.5135 105.401 61.6536ZM183.103 114.176C174.984 80.1907 140.728 59.1456 106.743 67.2652C72.7547 75.3878 51.7118 109.644 59.8314 143.629C67.9512 177.617 102.208 198.659 136.196 190.54C170.181 182.42 191.226 148.164 183.103 114.176Z" fill="url(#paint11_linear_159_186)"/>
<path fill-rule="evenodd" clip-rule="evenodd" d="M117.196 10.9478C121.282 9.97181 125.4 12.4993 126.373 16.5848L127.53 21.4206C128.506 25.5062 125.975 29.6207 121.89 30.597L113.701 32.5558L115.764 41.1862C129.127 40.307 142.211 42.531 154.162 47.3408L156.495 43.5426C158.693 39.9644 163.393 38.8428 166.971 41.0407L179.27 48.5947C182.851 50.7927 183.973 55.4959 181.775 59.0741L179.442 62.8726C192.675 74.46 202.573 90.1049 206.962 108.477C218.226 155.618 189.035 203.133 141.895 214.398C94.7542 225.66 47.2385 196.471 35.9737 149.331C31.5841 130.958 33.339 112.528 39.907 96.2105L36.1094 93.877C34.3801 92.8133 33.1643 91.1358 32.6924 89.1541C32.2172 87.1732 32.5441 85.1301 33.6076 83.3974L41.1616 71.0988C43.3596 67.5203 48.059 66.3989 51.6405 68.5965L55.4387 70.9306C63.9236 61.2368 74.5874 53.3398 86.9059 48.0808L84.843 39.4504L76.6528 41.4062C72.5704 42.3823 68.452 39.8547 67.4758 35.7692L66.319 30.9334C65.3428 26.8477 67.8736 22.7295 71.9597 21.7533L117.196 10.9478ZM201.351 109.815C190.826 65.7683 146.429 38.4969 102.382 49.0214C58.3349 59.5459 31.0638 103.942 41.5882 147.989C52.1095 192.033 96.5056 219.308 140.553 208.783C184.6 198.259 211.875 153.863 201.351 109.815ZM48.6186 73.5129C47.7523 72.9798 46.6113 73.2516 46.078 74.1211L38.524 86.4197C38.2654 86.8368 38.1876 87.3314 38.3039 87.8161C38.4204 88.2977 38.7113 88.7048 39.1282 88.9605L42.2603 90.8832C44.8883 85.4243 48.0692 80.2459 51.7507 75.4362L48.6186 73.5129ZM163.952 45.9571C163.082 45.4239 161.945 45.6955 161.411 46.565L159.488 49.6971C164.944 52.3218 170.123 55.5022 174.935 59.1839L176.859 56.0554C177.114 55.6352 177.192 55.1405 177.076 54.659C176.962 54.1774 176.668 53.7697 176.251 53.5111L163.952 45.9571ZM90.4546 38.1092L92.3332 45.9668C95.1613 44.9745 98.0639 44.1179 101.041 43.4068C104.018 42.6957 106.995 42.1496 109.965 41.7553L108.087 33.8976L90.4546 38.1092ZM120.761 17.9267C120.525 16.9376 119.527 16.3235 118.534 16.5593L73.3009 27.3679C72.3085 27.6039 71.6941 28.6031 71.9337 29.5921L73.0874 34.4274C73.3232 35.4164 74.3224 36.0306 75.3148 35.7946L120.548 24.9861C121.54 24.7501 122.154 23.7511 121.915 22.7588L120.761 17.9267Z" fill="url(#paint12_linear_159_186)"/>
<path d="M151.879 161.019C153.036 159.923 154.863 159.971 155.958 161.129L162.488 168.027C163.583 169.184 163.535 171.01 162.378 172.105C161.996 172.464 161.541 172.704 161.066 172.817C160.096 173.047 159.032 172.772 158.299 171.993L151.766 165.098C150.671 163.941 150.722 162.115 151.879 161.019Z" fill="url(#paint13_linear_159_186)"/>
<path d="M85.2737 159.202C86.4305 158.107 88.2564 158.155 89.3524 159.312C90.4484 160.47 90.4 162.296 89.2425 163.391L82.3451 169.921C81.9634 170.283 81.511 170.519 81.0325 170.631C80.0624 170.864 78.9993 170.587 78.2658 169.811C77.1698 168.654 77.2182 166.828 78.375 165.732L85.2737 159.202Z" fill="url(#paint14_linear_159_186)"/>
<path fill-rule="evenodd" clip-rule="evenodd" d="M84.2265 118.702C84.6671 117.172 86.2681 116.289 87.7963 116.732L112.336 123.824C114.495 120.705 118.488 119.149 122.33 120.263C127.141 121.654 129.924 126.7 128.536 131.512C127.145 136.323 122.097 139.105 117.284 137.716C113.444 136.605 110.897 133.16 110.732 129.37L86.1946 122.274C84.6664 121.831 83.7817 120.234 84.2265 118.702ZM120.729 125.806C118.972 125.3 117.133 126.315 116.625 128.067C116.117 129.823 117.131 131.665 118.887 132.171C120.643 132.68 122.482 131.664 122.991 129.909C123.5 128.154 122.482 126.313 120.729 125.806Z" fill="url(#paint15_linear_159_186)"/>
<path d="M169.139 22.4067C207.394 29.1139 229.064 51.7273 234.149 90.2469M190.201 2.79297C228.453 9.50005 250.123 32.1135 255.207 70.6332M94.5879 235.269C55.9096 231.782 32.4266 211.059 24.1388 173.098M75.2428 256.573C36.5609 253.086 13.0779 232.363 4.79333 194.403" stroke="url(#paint16_linear_159_186)" stroke-width="5.5855" stroke-linecap="round"/>
</g>
<defs>
<filter id="filter0_d_159_186" x="0" y="0" width="260" height="263.366" filterUnits="userSpaceOnUse" color-interpolation-filters="sRGB">
<feFlood flood-opacity="0" result="BackgroundImageFix"/>
<feColorMatrix in="SourceAlpha" type="matrix" values="0 0 0 0 0 0 0 0 0 0 0 0 0 0 0 0 0 0 127 0" result="hardAlpha"/>
<feOffset dy="2"/>
<feGaussianBlur stdDeviation="1"/>
<feComposite in2="hardAlpha" operator="out"/>
<feColorMatrix type="matrix" values="0 0 0 0 0 0 0 0 0 0 0 0 0 0 0 0 0 0 0.25 0"/>
<feBlend mode="normal" in2="BackgroundImageFix" result="effect1_dropShadow_159_186"/>
<feBlend mode="normal" in="SourceGraphic" in2="effect1_dropShadow_159_186" result="shape"/>
</filter>
<linearGradient id="paint0_linear_159_186" x1="32.4795" y1="12.9028" x2="233.645" y2="186.535" gradientUnits="userSpaceOnUse">
<stop stop-color="#C27AFF"/>
<stop offset="1" stop-color="#74D4FF"/>
</linearGradient>
<linearGradient id="paint1_linear_159_186" x1="32.4795" y1="12.9028" x2="233.645" y2="186.535" gradientUnits="userSpaceOnUse">
<stop stop-color="#C27AFF"/>
<stop offset="1" stop-color="#74D4FF"/>
</linearGradient>
<linearGradient id="paint2_linear_159_186" x1="32.4795" y1="12.9028" x2="233.645" y2="186.535" gradientUnits="userSpaceOnUse">
<stop stop-color="#C27AFF"/>
<stop offset="1" stop-color="#74D4FF"/>
</linearGradient>
<linearGradient id="paint3_linear_159_186" x1="32.4795" y1="12.9028" x2="233.645" y2="186.535" gradientUnits="userSpaceOnUse">
<stop stop-color="#C27AFF"/>
<stop offset="1" stop-color="#74D4FF"/>
</linearGradient>
<linearGradient id="paint4_linear_159_186" x1="32.4795" y1="12.9028" x2="233.645" y2="186.535" gradientUnits="userSpaceOnUse">
<stop stop-color="#C27AFF"/>
<stop offset="1" stop-color="#74D4FF"/>
</linearGradient>
<linearGradient id="paint5_linear_159_186" x1="32.4795" y1="12.9028" x2="233.645" y2="186.535" gradientUnits="userSpaceOnUse">
<stop stop-color="#C27AFF"/>
<stop offset="1" stop-color="#74D4FF"/>
</linearGradient>
<linearGradient id="paint6_linear_159_186" x1="32.4795" y1="12.9028" x2="233.645" y2="186.535" gradientUnits="userSpaceOnUse">
<stop stop-color="#C27AFF"/>
<stop offset="1" stop-color="#74D4FF"/>
</linearGradient>
<linearGradient id="paint7_linear_159_186" x1="32.4795" y1="12.9028" x2="233.645" y2="186.535" gradientUnits="userSpaceOnUse">
<stop stop-color="#C27AFF"/>
<stop offset="1" stop-color="#74D4FF"/>
</linearGradient>
<linearGradient id="paint8_linear_159_186" x1="32.4795" y1="12.9028" x2="233.645" y2="186.535" gradientUnits="userSpaceOnUse">
<stop stop-color="#C27AFF"/>
<stop offset="1" stop-color="#74D4FF"/>
</linearGradient>
<linearGradient id="paint9_linear_159_186" x1="32.4795" y1="12.9028" x2="233.645" y2="186.535" gradientUnits="userSpaceOnUse">
<stop stop-color="#C27AFF"/>
<stop offset="1" stop-color="#74D4FF"/>
</linearGradient>
<linearGradient id="paint10_linear_159_186" x1="32.4795" y1="12.9028" x2="233.645" y2="186.535" gradientUnits="userSpaceOnUse">
<stop stop-color="#C27AFF"/>
<stop offset="1" stop-color="#74D4FF"/>
</linearGradient>
<linearGradient id="paint11_linear_159_186" x1="32.4795" y1="12.9028" x2="233.645" y2="186.535" gradientUnits="userSpaceOnUse">
<stop stop-color="#C27AFF"/>
<stop offset="1" stop-color="#74D4FF"/>
</linearGradient>
<linearGradient id="paint12_linear_159_186" x1="32.4795" y1="12.9028" x2="233.645" y2="186.535" gradientUnits="userSpaceOnUse">
<stop stop-color="#C27AFF"/>
<stop offset="1" stop-color="#74D4FF"/>
</linearGradient>
<linearGradient id="paint13_linear_159_186" x1="32.4795" y1="12.9028" x2="233.645" y2="186.535" gradientUnits="userSpaceOnUse">
<stop stop-color="#C27AFF"/>
<stop offset="1" stop-color="#74D4FF"/>
</linearGradient>
<linearGradient id="paint14_linear_159_186" x1="32.4795" y1="12.9028" x2="233.645" y2="186.535" gradientUnits="userSpaceOnUse">
<stop stop-color="#C27AFF"/>
<stop offset="1" stop-color="#74D4FF"/>
</linearGradient>
<linearGradient id="paint15_linear_159_186" x1="32.4795" y1="12.9028" x2="233.645" y2="186.535" gradientUnits="userSpaceOnUse">
<stop stop-color="#C27AFF"/>
<stop offset="1" stop-color="#74D4FF"/>
</linearGradient>
<linearGradient id="paint16_linear_159_186" x1="4.79333" y1="5.45849" x2="255.207" y2="253.908" gradientUnits="userSpaceOnUse">
<stop stop-color="#C27AFF"/>
<stop offset="1" stop-color="#74D4FF"/>
</linearGradient>
</defs>
</svg>
