<svg width="1078" height="360" viewBox="0 0 1078 360" fill="none" xmlns="http://www.w3.org/2000/svg">
<g filter="url(#filter0_d_159_185)">
<path d="M307.796 183.318L292.881 274H263.151L288.606 121.273H317.143L312.967 146.131H314.856C319.695 137.977 326.29 131.481 334.643 126.642C343.061 121.737 353.005 119.284 364.472 119.284C374.813 119.284 383.497 121.472 390.523 125.847C397.616 130.155 402.621 136.585 405.538 145.136C408.521 153.687 408.985 164.26 406.93 176.855L390.623 274H360.893L376.504 180.435C378.293 169.365 376.835 160.714 372.129 154.483C367.488 148.186 360.097 145.037 349.955 145.037C343.061 145.037 336.665 146.528 330.765 149.511C324.932 152.494 319.993 156.869 315.95 162.636C311.972 168.337 309.255 175.231 307.796 183.318ZM439.32 96.8125L443.695 70.3636H601.294L596.919 96.8125H533.382L503.95 274H473.325L502.757 96.8125H439.32ZM599.927 274L625.381 121.273H655.112L629.657 274H599.927ZM646.461 97.4091C641.29 97.4091 636.915 95.6856 633.336 92.2386C629.823 88.7254 628.199 84.5492 628.464 79.7102C628.729 74.8049 630.784 70.6288 634.629 67.1818C638.473 63.6686 642.948 61.9119 648.052 61.9119C653.222 61.9119 657.564 63.6686 661.077 67.1818C664.591 70.6288 666.248 74.8049 666.049 79.7102C665.784 84.5492 663.729 88.7254 659.884 92.2386C656.106 95.6856 651.631 97.4091 646.461 97.4091ZM669.753 274L695.207 121.273H723.744L719.568 146.131H721.457C726.098 137.712 732.395 131.15 740.349 126.443C748.37 121.67 757.452 119.284 767.594 119.284C777.67 119.284 785.79 121.67 791.955 126.443C798.186 131.216 802.262 137.778 804.185 146.131H805.776C810.681 137.911 817.542 131.382 826.358 126.543C835.174 121.704 845.084 119.284 856.088 119.284C869.81 119.284 880.349 123.659 887.707 132.409C895.132 141.093 897.385 154.152 894.469 171.585L877.366 274H847.537L864.241 174.369C865.899 163.962 864.308 156.472 859.469 151.898C854.63 147.258 848.299 144.938 840.477 144.938C830.799 144.938 822.778 147.92 816.415 153.886C810.051 159.786 806.14 167.376 804.682 176.656L788.276 274H758.744L775.747 172.48C777.073 164.128 775.548 157.466 771.173 152.494C766.865 147.456 760.567 144.938 752.281 144.938C746.647 144.938 741.178 146.429 735.875 149.412C730.638 152.395 726.164 156.505 722.452 161.741C718.74 166.978 716.32 173.01 715.193 179.838L699.483 274H669.753ZM982.54 277.082C967.559 277.082 955.164 273.867 945.353 267.438C935.609 260.941 928.781 251.827 924.87 240.094C920.959 228.295 920.329 214.473 922.981 198.631C925.566 182.987 930.77 169.199 938.592 157.267C946.414 145.335 956.158 136.022 967.825 129.327C979.558 122.632 992.517 119.284 1006.7 119.284C1015.32 119.284 1023.44 120.709 1031.06 123.56C1038.75 126.41 1045.28 130.884 1050.65 136.983C1056.02 143.081 1059.73 151.003 1061.79 160.747C1063.91 170.425 1063.84 182.191 1061.59 196.045L1059.9 206.585H938.393L941.873 184.312H1034.15C1035.54 176.491 1035.17 169.563 1033.05 163.531C1030.93 157.433 1027.28 152.627 1022.11 149.114C1017.01 145.6 1010.58 143.844 1002.82 143.844C994.87 143.844 987.446 145.932 980.552 150.108C973.658 154.284 967.891 159.62 963.251 166.116C958.677 172.546 955.793 179.175 954.6 186.003L951.12 206.386C949.397 217.523 949.695 226.472 952.015 233.233C954.401 239.994 958.577 244.9 964.543 247.949C970.509 250.998 977.967 252.523 986.915 252.523C992.683 252.523 998.019 251.727 1002.92 250.136C1007.9 248.479 1012.3 246.06 1016.15 242.878C1019.99 239.63 1023.21 235.586 1025.79 230.747L1053.04 235.818C1049.39 244.104 1044.16 251.363 1037.33 257.594C1030.5 263.759 1022.45 268.564 1013.17 272.011C1003.95 275.392 993.743 277.082 982.54 277.082Z" fill="url(#paint0_linear_159_185)"/>
</g>
<g filter="url(#filter1_d_159_185)">
<path fill-rule="evenodd" clip-rule="evenodd" d="M121.537 102.079C168.323 102.079 206.251 140.006 206.251 186.792C206.251 233.578 168.323 271.505 121.537 271.505C74.7512 271.505 36.824 233.578 36.8239 186.792C36.8239 140.006 74.7512 102.079 121.537 102.079ZM121.848 120.697C84.83 120.697 54.8216 150.289 54.8216 186.792C54.8217 223.295 84.8306 252.887 121.848 252.887C158.865 252.887 188.874 223.295 188.874 186.792C188.874 150.289 158.865 120.697 121.848 120.697Z" fill="url(#paint1_linear_159_185)"/>
<path d="M131.745 229.129C133.296 228.757 134.854 229.713 135.223 231.262L137.431 240.503C137.802 242.051 136.845 243.61 135.294 243.978C133.746 244.35 132.188 243.393 131.82 241.841L129.611 232.604C129.24 231.055 130.197 229.497 131.745 229.129Z" fill="url(#paint2_linear_159_185)"/>
<path d="M105.272 230.448C105.728 228.918 107.334 228.049 108.86 228.502C110.389 228.957 111.258 230.564 110.802 232.09L108.097 241.195C107.79 242.22 106.968 242.95 105.999 243.179C105.521 243.292 105.01 243.29 104.509 243.138C102.98 242.685 102.111 241.079 102.566 239.55L105.272 230.448Z" fill="url(#paint3_linear_159_185)"/>
<path d="M163.862 198.719C164.317 197.19 165.924 196.321 167.45 196.773L176.555 199.482C178.081 199.937 178.953 201.544 178.498 203.069C178.194 204.094 177.369 204.825 176.4 205.055C175.925 205.168 175.414 205.164 174.909 205.012L165.804 202.307C164.278 201.85 163.409 200.244 163.862 198.719Z" fill="url(#paint4_linear_159_185)"/>
<path d="M64.4373 169.149C64.8934 167.62 66.4996 166.751 68.0257 167.207L77.1313 169.913C78.6599 170.368 79.5293 171.974 79.0732 173.5C78.7697 174.525 77.9455 175.255 76.9761 175.485C76.5007 175.601 75.99 175.594 75.4854 175.446L66.3798 172.737C64.8543 172.282 63.9851 170.675 64.4373 169.149Z" fill="url(#paint5_linear_159_185)"/>
<path d="M74.9716 194.252C76.5231 193.88 78.0814 194.837 78.4501 196.389C78.8212 197.936 77.8649 199.494 76.3133 199.863L67.0749 202.071C65.5271 202.443 63.9692 201.486 63.6006 199.935C63.2288 198.386 64.1853 196.828 65.7337 196.459L74.9716 194.252Z" fill="url(#paint6_linear_159_185)"/>
<path d="M175.86 170.148C177.412 169.776 178.966 170.733 179.338 172.282C179.707 173.833 178.753 175.391 177.202 175.759L167.963 177.967C166.415 178.339 164.857 177.382 164.485 175.831C164.117 174.282 165.074 172.725 166.622 172.356L175.86 170.148Z" fill="url(#paint7_linear_159_185)"/>
<path d="M160.594 145.091C161.751 143.995 163.578 144.044 164.673 145.201C165.769 146.358 165.717 148.185 164.56 149.28L157.662 155.809C157.281 156.171 156.828 156.408 156.353 156.521C155.383 156.753 154.32 156.475 153.583 155.699C152.49 154.543 152.539 152.716 153.696 151.62L160.594 145.091Z" fill="url(#paint8_linear_159_185)"/>
<path d="M80.5608 142.906C81.7176 141.81 83.5441 141.862 84.6395 143.019L91.1695 149.914C92.2649 151.07 92.2159 152.897 91.0591 153.993C90.6774 154.355 90.225 154.59 89.7471 154.704C88.7771 154.937 87.714 154.659 86.9804 153.883L80.4472 146.985C79.3518 145.828 79.4034 144.002 80.5608 142.906Z" fill="url(#paint9_linear_159_185)"/>
<path d="M134.841 131.023C135.294 129.495 136.901 128.625 138.429 129.082C139.955 129.534 140.825 131.14 140.372 132.669L137.663 141.772C137.359 142.796 136.535 143.526 135.566 143.756C135.09 143.873 134.579 143.866 134.075 143.714C132.549 143.261 131.68 141.655 132.133 140.126L134.841 131.023Z" fill="url(#paint10_linear_159_185)"/>
<path d="M107.641 128.241C109.193 127.869 110.747 128.826 111.119 130.377L113.327 139.615C113.696 141.164 112.738 142.722 111.19 143.091C109.642 143.462 108.084 142.505 107.713 140.957L105.504 131.716C105.136 130.168 106.093 128.609 107.641 128.241Z" fill="url(#paint11_linear_159_185)"/>
<path fill-rule="evenodd" clip-rule="evenodd" d="M105.401 118.861C142.482 110.001 179.858 132.96 188.718 170.042C197.578 207.123 174.615 244.498 137.537 253.359C100.456 262.218 63.0798 239.259 54.2198 202.178C45.36 165.096 68.3192 127.721 105.401 118.861ZM183.103 171.383C174.984 137.398 140.728 116.353 106.743 124.472C72.7547 132.595 51.7118 166.851 59.8314 200.836C67.9512 234.824 102.208 255.866 136.196 247.747C170.181 239.627 191.226 205.371 183.103 171.383Z" fill="url(#paint12_linear_159_185)"/>
<path fill-rule="evenodd" clip-rule="evenodd" d="M117.196 68.1548C121.282 67.1788 125.4 69.7063 126.373 73.7919L127.53 78.6276C128.506 82.7132 125.975 86.8278 121.89 87.8041L113.701 89.7628L115.764 98.3932C129.127 97.514 142.211 99.7381 154.162 104.548L156.495 100.75C158.693 97.1714 163.393 96.0498 166.971 98.2477L179.27 105.802C182.851 108 183.973 112.703 181.775 116.281L179.442 120.08C192.675 131.667 202.573 147.312 206.962 165.684C218.226 212.825 189.035 260.34 141.895 271.605C94.7542 282.867 47.2385 253.678 35.9737 206.538C31.5841 188.165 33.339 169.735 39.907 153.418L36.1094 151.084C34.3801 150.02 33.1643 148.343 32.6924 146.361C32.2172 144.38 32.5441 142.337 33.6076 140.604L41.1615 128.306C43.3596 124.727 48.059 123.606 51.6405 125.803L55.4387 128.138C63.9236 118.444 74.5874 110.547 86.9059 105.288L84.843 96.6574L76.6528 98.6132C72.5704 99.5894 68.452 97.0618 67.4758 92.9762L66.319 88.1404C65.3428 84.0547 67.8736 79.9365 71.9597 78.9604L117.196 68.1548ZM201.351 167.023C190.826 122.975 146.429 95.7039 102.382 106.228C58.3349 116.753 31.0638 161.149 41.5882 205.196C52.1095 249.24 96.5056 276.515 140.553 265.99C184.6 255.466 211.875 211.07 201.351 167.023ZM48.6186 130.72C47.7523 130.187 46.6113 130.459 46.078 131.328L38.5239 143.627C38.2654 144.044 38.1876 144.538 38.3039 145.023C38.4204 145.505 38.7112 145.912 39.1282 146.168L42.2603 148.09C44.8883 142.631 48.0691 137.453 51.7507 132.643L48.6186 130.72ZM163.952 103.164C163.082 102.631 161.945 102.903 161.411 103.772L159.488 106.904C164.944 109.529 170.123 112.709 174.935 116.391L176.859 113.262C177.114 112.842 177.192 112.348 177.076 111.866C176.962 111.384 176.668 110.977 176.251 110.718L163.952 103.164ZM90.4546 95.3162L92.3332 103.174C95.1613 102.182 98.0639 101.325 101.041 100.614C104.018 99.9027 106.995 99.3566 109.965 98.9623L108.087 91.1046L90.4546 95.3162ZM120.761 75.1337C120.525 74.1446 119.527 73.5305 118.534 73.7664L73.3009 84.575C72.3085 84.8109 71.6941 85.8101 71.9337 86.7992L73.0874 91.6344C73.3232 92.6235 74.3224 93.2376 75.3148 93.0017L120.548 82.1931C121.54 81.9572 122.154 80.9582 121.915 79.9658L120.761 75.1337Z" fill="url(#paint13_linear_159_185)"/>
<path d="M151.879 218.226C153.036 217.131 154.863 217.178 155.958 218.336L162.488 225.234C163.583 226.391 163.535 228.217 162.378 229.312C161.996 229.671 161.541 229.911 161.066 230.024C160.096 230.254 159.032 229.979 158.299 229.2L151.766 222.305C150.671 221.148 150.722 219.322 151.879 218.226Z" fill="url(#paint14_linear_159_185)"/>
<path d="M85.2737 216.409C86.4305 215.314 88.2564 215.362 89.3524 216.519C90.4484 217.677 90.4 219.503 89.2425 220.598L82.3451 227.128C81.9634 227.49 81.5109 227.726 81.0325 227.839C80.0624 228.071 78.9993 227.794 78.2658 227.018C77.1698 225.861 77.2182 224.035 78.375 222.939L85.2737 216.409Z" fill="url(#paint15_linear_159_185)"/>
<path fill-rule="evenodd" clip-rule="evenodd" d="M84.2265 175.909C84.6671 174.379 86.2681 173.496 87.7963 173.939L112.336 181.031C114.495 177.912 118.488 176.356 122.33 177.47C127.141 178.861 129.924 183.907 128.536 188.72C127.145 193.53 122.097 196.312 117.284 194.923C113.444 193.812 110.897 190.367 110.732 186.577L86.1946 179.481C84.6664 179.038 83.7817 177.441 84.2265 175.909ZM120.729 183.013C118.972 182.507 117.133 183.522 116.625 185.274C116.117 187.03 117.131 188.872 118.887 189.378C120.643 189.887 122.482 188.871 122.991 187.116C123.5 185.361 122.482 183.52 120.729 183.013Z" fill="url(#paint16_linear_159_185)"/>
<path d="M169.139 79.6138C207.394 86.3209 229.064 108.934 234.149 147.454M190.201 60C228.453 66.7071 250.123 89.3205 255.207 127.84M94.5879 292.476C55.9096 288.989 32.4266 268.266 24.1388 230.305M75.2428 313.78C36.5609 310.293 13.0779 289.57 4.79334 251.61" stroke="url(#paint17_linear_159_185)" stroke-width="5.5855" stroke-linecap="round"/>
</g>
<defs>
<filter id="filter0_d_159_185" x="261.151" y="61.9121" width="805.818" height="219.17" filterUnits="userSpaceOnUse" color-interpolation-filters="sRGB">
<feFlood flood-opacity="0" result="BackgroundImageFix"/>
<feColorMatrix in="SourceAlpha" type="matrix" values="0 0 0 0 0 0 0 0 0 0 0 0 0 0 0 0 0 0 127 0" result="hardAlpha"/>
<feOffset dy="2"/>
<feGaussianBlur stdDeviation="1"/>
<feComposite in2="hardAlpha" operator="out"/>
<feColorMatrix type="matrix" values="0 0 0 0 0 0 0 0 0 0 0 0 0 0 0 0 0 0 0.25 0"/>
<feBlend mode="normal" in2="BackgroundImageFix" result="effect1_dropShadow_159_185"/>
<feBlend mode="normal" in="SourceGraphic" in2="effect1_dropShadow_159_185" result="shape"/>
</filter>
<filter id="filter1_d_159_185" x="0" y="57.207" width="260" height="263.366" filterUnits="userSpaceOnUse" color-interpolation-filters="sRGB">
<feFlood flood-opacity="0" result="BackgroundImageFix"/>
<feColorMatrix in="SourceAlpha" type="matrix" values="0 0 0 0 0 0 0 0 0 0 0 0 0 0 0 0 0 0 127 0" result="hardAlpha"/>
<feOffset dy="2"/>
<feGaussianBlur stdDeviation="1"/>
<feComposite in2="hardAlpha" operator="out"/>
<feColorMatrix type="matrix" values="0 0 0 0 0 0 0 0 0 0 0 0 0 0 0 0 0 0 0.25 0"/>
<feBlend mode="normal" in2="BackgroundImageFix" result="effect1_dropShadow_159_185"/>
<feBlend mode="normal" in="SourceGraphic" in2="effect1_dropShadow_159_185" result="shape"/>
</filter>
<linearGradient id="paint0_linear_159_185" x1="255.793" y1="6.78118" x2="515.902" y2="603.958" gradientUnits="userSpaceOnUse">
<stop stop-color="#C27AFF"/>
<stop offset="1" stop-color="#74D4FF"/>
</linearGradient>
<linearGradient id="paint1_linear_159_185" x1="32.4795" y1="70.1098" x2="233.645" y2="243.742" gradientUnits="userSpaceOnUse">
<stop stop-color="#C27AFF"/>
<stop offset="1" stop-color="#74D4FF"/>
</linearGradient>
<linearGradient id="paint2_linear_159_185" x1="32.4795" y1="70.1098" x2="233.645" y2="243.742" gradientUnits="userSpaceOnUse">
<stop stop-color="#C27AFF"/>
<stop offset="1" stop-color="#74D4FF"/>
</linearGradient>
<linearGradient id="paint3_linear_159_185" x1="32.4795" y1="70.1098" x2="233.645" y2="243.742" gradientUnits="userSpaceOnUse">
<stop stop-color="#C27AFF"/>
<stop offset="1" stop-color="#74D4FF"/>
</linearGradient>
<linearGradient id="paint4_linear_159_185" x1="32.4795" y1="70.1098" x2="233.645" y2="243.742" gradientUnits="userSpaceOnUse">
<stop stop-color="#C27AFF"/>
<stop offset="1" stop-color="#74D4FF"/>
</linearGradient>
<linearGradient id="paint5_linear_159_185" x1="32.4795" y1="70.1098" x2="233.645" y2="243.742" gradientUnits="userSpaceOnUse">
<stop stop-color="#C27AFF"/>
<stop offset="1" stop-color="#74D4FF"/>
</linearGradient>
<linearGradient id="paint6_linear_159_185" x1="32.4795" y1="70.1098" x2="233.645" y2="243.742" gradientUnits="userSpaceOnUse">
<stop stop-color="#C27AFF"/>
<stop offset="1" stop-color="#74D4FF"/>
</linearGradient>
<linearGradient id="paint7_linear_159_185" x1="32.4795" y1="70.1098" x2="233.645" y2="243.742" gradientUnits="userSpaceOnUse">
<stop stop-color="#C27AFF"/>
<stop offset="1" stop-color="#74D4FF"/>
</linearGradient>
<linearGradient id="paint8_linear_159_185" x1="32.4795" y1="70.1098" x2="233.645" y2="243.742" gradientUnits="userSpaceOnUse">
<stop stop-color="#C27AFF"/>
<stop offset="1" stop-color="#74D4FF"/>
</linearGradient>
<linearGradient id="paint9_linear_159_185" x1="32.4795" y1="70.1098" x2="233.645" y2="243.742" gradientUnits="userSpaceOnUse">
<stop stop-color="#C27AFF"/>
<stop offset="1" stop-color="#74D4FF"/>
</linearGradient>
<linearGradient id="paint10_linear_159_185" x1="32.4795" y1="70.1098" x2="233.645" y2="243.742" gradientUnits="userSpaceOnUse">
<stop stop-color="#C27AFF"/>
<stop offset="1" stop-color="#74D4FF"/>
</linearGradient>
<linearGradient id="paint11_linear_159_185" x1="32.4795" y1="70.1098" x2="233.645" y2="243.742" gradientUnits="userSpaceOnUse">
<stop stop-color="#C27AFF"/>
<stop offset="1" stop-color="#74D4FF"/>
</linearGradient>
<linearGradient id="paint12_linear_159_185" x1="32.4795" y1="70.1098" x2="233.645" y2="243.742" gradientUnits="userSpaceOnUse">
<stop stop-color="#C27AFF"/>
<stop offset="1" stop-color="#74D4FF"/>
</linearGradient>
<linearGradient id="paint13_linear_159_185" x1="32.4795" y1="70.1098" x2="233.645" y2="243.742" gradientUnits="userSpaceOnUse">
<stop stop-color="#C27AFF"/>
<stop offset="1" stop-color="#74D4FF"/>
</linearGradient>
<linearGradient id="paint14_linear_159_185" x1="32.4795" y1="70.1098" x2="233.645" y2="243.742" gradientUnits="userSpaceOnUse">
<stop stop-color="#C27AFF"/>
<stop offset="1" stop-color="#74D4FF"/>
</linearGradient>
<linearGradient id="paint15_linear_159_185" x1="32.4795" y1="70.1098" x2="233.645" y2="243.742" gradientUnits="userSpaceOnUse">
<stop stop-color="#C27AFF"/>
<stop offset="1" stop-color="#74D4FF"/>
</linearGradient>
<linearGradient id="paint16_linear_159_185" x1="32.4795" y1="70.1098" x2="233.645" y2="243.742" gradientUnits="userSpaceOnUse">
<stop stop-color="#C27AFF"/>
<stop offset="1" stop-color="#74D4FF"/>
</linearGradient>
<linearGradient id="paint17_linear_159_185" x1="4.79333" y1="62.6655" x2="255.207" y2="311.115" gradientUnits="userSpaceOnUse">
<stop stop-color="#C27AFF"/>
<stop offset="1" stop-color="#74D4FF"/>
</linearGradient>
</defs>
</svg>
